<?xml version="1.0" standalone="no"?>
<!DOCTYPE svg PUBLIC "-//W3C//DTD SVG 20010904//EN"
 "http://www.w3.org/TR/2001/REC-SVG-20010904/DTD/svg10.dtd">
<svg version="1.0" xmlns="http://www.w3.org/2000/svg"
 width="300.000000pt" height="300.000000pt" viewBox="0 0 300.000000 300.000000"
 preserveAspectRatio="xMidYMid meet">
<metadata>
Created by potrace 1.11, written by Peter Selinger 2001-2013
</metadata>
<g transform="translate(0.000000,300.000000) scale(0.100000,-0.100000)"
fill="#000000" stroke="none">
<path d="M1190 1890 c0 -5 -9 -10 -21 -10 -11 0 -17 -4 -14 -10 3 -5 0 -10 -7
-10 -7 0 -64 -50 -127 -110 -63 -61 -119 -110 -124 -110 -6 0 -8 -2 -5 -5 3
-3 -39 -51 -93 -105 -55 -55 -99 -103 -99 -105 0 -3 -15 -20 -32 -38 -18 -17
-32 -34 -31 -37 0 -3 -10 -13 -24 -23 l-24 -19 27 54 c16 29 27 56 26 61 -1 4
2 7 6 7 5 0 19 23 32 50 13 28 27 50 32 50 4 0 8 6 8 14 0 7 11 30 25 50 13
20 22 36 19 36 -3 0 4 14 16 30 12 17 18 30 13 30 -4 0 -3 4 3 8 6 4 21 27 35
52 13 25 29 48 34 52 6 4 7 8 2 8 -4 0 0 11 9 24 15 24 14 25 -13 39 -26 12
-40 14 -60 7 -18 -5 -38 -5 -43 2 -3 4 -26 -11 -51 -32 -26 -22 -49 -37 -53
-35 -3 3 -4 2 -2 -1 3 -5 -44 -61 -100 -120 -12 -13 -19 -25 -16 -28 3 -3 -2
-6 -11 -6 -10 0 -16 -3 -15 -7 3 -8 -10 -24 -69 -92 -18 -20 -33 -39 -33 -42
0 -4 -16 -24 -35 -45 -19 -22 -35 -42 -35 -45 0 -3 -8 -15 -17 -27 -10 -11
-25 -30 -33 -43 -8 -12 -26 -36 -41 -53 -14 -17 -40 -55 -59 -84 -18 -30 -38
-59 -45 -65 -6 -7 -29 -41 -50 -77 -22 -36 -43 -68 -48 -71 -4 -3 -10 -21 -13
-40 -5 -29 -2 -37 18 -47 37 -20 69 -22 85 -7 8 8 12 15 8 15 -3 0 3 14 15 30
12 16 18 30 14 30 -4 0 2 10 14 23 12 13 19 27 15 30 -3 4 -2 7 4 7 6 0 16 14
23 30 7 17 16 30 21 30 5 0 9 7 9 15 0 8 9 24 20 35 11 11 18 20 15 20 -5 0
53 82 80 113 8 9 15 19 15 22 0 13 99 133 104 128 3 -4 6 1 6 11 0 9 9 27 20
39 74 82 100 113 100 118 0 4 6 9 14 12 10 4 4 -12 -13 -42 -16 -26 -32 -58
-36 -69 -3 -12 -11 -22 -16 -22 -5 0 -9 -7 -9 -15 0 -8 -5 -15 -12 -15 -6 0
-9 -3 -5 -6 6 -6 -111 -244 -126 -255 -5 -3 -8 -8 -7 -10 2 -6 -18 -61 -30
-82 -20 -34 64 -90 85 -57 4 6 11 8 16 5 5 -4 9 1 9 9 0 9 7 16 15 16 8 0 14
4 12 9 -1 5 13 21 32 35 19 14 31 26 25 26 -5 0 5 9 21 20 17 11 27 20 24 20
-3 0 59 66 138 147 79 80 143 150 143 155 0 5 5 6 10 3 6 -3 10 -2 10 4 0 10
104 121 113 121 6 0 -39 -69 -82 -127 -13 -17 -22 -33 -20 -35 3 -3 -21 -35
-48 -63 -7 -8 -13 -20 -13 -27 0 -7 -9 -19 -20 -26 -12 -7 -18 -17 -15 -22 3
-6 2 -10 -2 -10 -5 0 -22 -25 -38 -55 -17 -30 -34 -55 -38 -55 -5 0 -5 -4 -2
-10 3 -5 1 -10 -6 -10 -7 0 -10 -2 -7 -6 3 -3 -2 -21 -12 -41 -19 -40 -11 -89
16 -100 8 -3 12 -8 9 -12 -2 -5 15 -7 38 -6 45 3 107 30 107 47 0 6 3 9 6 5 4
-3 12 -1 19 6 7 7 36 32 65 56 28 25 57 56 64 70 13 24 13 33 2 79 -3 9 -5 22
-6 27 0 6 -11 -2 -24 -17 -13 -15 -27 -24 -30 -21 -3 4 -6 -1 -6 -11 0 -9 -8
-20 -17 -23 -10 -4 -26 -17 -36 -30 -10 -13 -23 -23 -28 -23 -6 0 -17 -7 -25
-15 -29 -28 -34 -15 -12 26 13 23 29 53 37 68 8 14 20 30 28 34 7 5 11 12 8
17 -3 5 -1 11 4 15 5 3 31 38 57 78 27 39 62 91 78 113 17 23 38 52 46 64 35
51 135 186 147 198 7 8 10 18 7 24 -4 6 -3 8 3 5 5 -3 17 7 27 24 21 35 8 54
-39 55 -16 0 -42 4 -57 7 -17 5 -28 3 -28 -3z"/>
<path d="M1818 1895 c-2 -1 -24 -5 -49 -8 -26 -3 -63 -12 -83 -21 -20 -8 -36
-12 -36 -8 0 4 -4 3 -8 -3 -4 -5 -29 -21 -57 -35 -27 -14 -58 -33 -67 -43 -9
-10 -19 -18 -23 -17 -4 1 -20 -10 -36 -24 -16 -14 -34 -26 -41 -26 -6 0 -9 -3
-6 -6 4 -3 -19 -30 -49 -60 -31 -30 -53 -54 -50 -54 3 0 -5 -12 -18 -26 -14
-15 -25 -33 -25 -39 0 -7 -7 -15 -15 -19 -8 -3 -15 -12 -15 -21 0 -8 -5 -15
-11 -15 -5 0 -8 -4 -4 -9 3 -5 -2 -16 -11 -25 -8 -9 -12 -20 -9 -26 3 -5 1
-10 -5 -10 -6 0 -8 -4 -5 -10 3 -5 1 -10 -5 -10 -6 0 -9 -4 -5 -9 3 -5 1 -12
-4 -15 -19 -12 -37 -206 -18 -206 4 0 7 -5 7 -12 0 -18 44 -78 57 -78 7 0 16
-7 21 -17 10 -17 95 -23 159 -11 39 7 153 60 153 70 0 5 6 8 13 8 17 0 57 33
140 116 86 86 131 138 128 148 -1 4 6 15 16 24 24 22 75 102 66 102 -5 0 -3 4
2 8 10 7 31 48 53 102 34 84 37 124 12 160 -24 34 -89 58 -102 37 -11 -18 -10
6 2 37 6 16 6 27 -1 31 -13 9 -67 24 -71 20z m-13 -106 c-4 -5 -17 -14 -28
-20 -44 -18 -117 -81 -117 -99 0 -5 -4 -10 -9 -12 -6 -1 -12 -17 -15 -34 -5
-26 0 -38 24 -64 33 -35 36 -35 42 -6 3 18 59 86 71 86 3 0 18 11 33 25 14 13
30 22 34 20 5 -3 10 0 12 7 3 7 11 9 24 4 10 -5 14 -10 8 -13 -7 -2 -10 -13
-7 -23 3 -11 1 -20 -4 -20 -5 0 -10 -6 -10 -13 0 -7 -16 -39 -36 -70 -20 -32
-37 -62 -37 -67 0 -6 -4 -10 -8 -10 -4 0 -15 -13 -24 -28 -16 -26 -36 -50
-117 -137 -91 -97 -231 -185 -296 -185 -36 0 -81 40 -72 64 3 8 1 17 -6 20 -8
3 -9 7 -2 13 6 4 10 17 10 28 -1 24 33 114 52 136 7 8 13 21 13 27 0 6 12 24
26 41 14 17 23 31 19 31 -4 0 3 9 16 20 13 10 21 19 17 20 -8 0 119 130 127
130 8 0 88 62 97 75 4 6 8 6 8 2 0 -4 21 4 46 18 25 14 50 23 55 20 5 -4 9 -2
9 4 0 6 6 8 14 5 8 -3 17 -1 21 5 3 6 8 11 11 11 3 0 2 -5 -1 -11z"/>
<path d="M2740 1858 c-19 -4 -45 -10 -58 -12 -36 -8 -160 -74 -220 -118 -63
-47 -192 -177 -192 -194 0 -7 -7 -14 -15 -18 -8 -3 -15 -12 -15 -20 0 -8 -4
-16 -8 -18 -21 -9 -80 -159 -84 -213 -1 -16 -6 -36 -11 -42 -6 -9 -6 -13 1
-13 6 0 9 -8 8 -17 -6 -40 33 -101 95 -148 30 -23 156 -14 224 14 92 39 135
67 209 139 41 40 51 59 60 113 10 62 -6 63 -67 5 -31 -30 -57 -52 -57 -48 0 4
-4 2 -8 -3 -4 -6 -29 -27 -57 -46 -148 -106 -288 -123 -296 -36 -1 9 -2 27 -4
40 -1 12 4 32 12 45 9 15 10 22 2 22 -8 0 -7 5 2 16 7 9 14 23 15 31 2 8 10
23 20 34 9 10 14 19 10 19 -4 0 12 25 34 55 22 30 40 57 40 61 0 10 125 126
142 132 4 1 20 14 34 27 15 14 29 23 32 21 2 -3 10 0 18 7 25 22 44 37 46 37
18 1 48 14 48 22 0 5 5 6 10 3 6 -4 16 -2 23 3 7 5 20 8 29 7 10 -2 20 1 23 5
8 14 33 1 31 -16 -3 -22 -59 -93 -73 -94 -7 0 -13 -4 -13 -10 0 -14 -104 -82
-108 -70 -6 17 -32 -10 -32 -32 0 -21 24 -51 34 -41 3 4 6 1 6 -6 0 -12 36
-11 58 2 6 5 17 5 22 2 6 -3 10 -1 10 4 0 6 6 11 14 11 8 0 17 7 20 16 4 9 9
14 12 11 3 -3 31 21 62 53 69 70 82 86 82 100 0 5 5 10 11 10 6 0 9 7 5 15 -3
8 -2 15 2 15 7 0 9 40 3 60 -2 10 -51 63 -51 55 0 -4 -6 -3 -12 2 -15 12 -79
13 -128 1z"/>
<path d="M2213 1838 c-11 -13 -30 -42 -42 -65 -11 -23 -25 -45 -31 -48 -6 -4
-8 -11 -5 -16 4 -5 2 -9 -2 -9 -9 0 -37 -59 -34 -72 0 -5 -3 -8 -8 -8 -17 0
-5 -33 17 -48 18 -12 23 -11 41 7 12 12 21 18 21 14 1 -5 10 8 21 27 10 19 37
63 59 98 21 34 35 60 30 57 -5 -3 -2 7 7 23 9 16 14 36 10 45 -9 25 -59 21
-84 -5z"/>
</g>
</svg>
